<?xml version="1.0" encoding="utf-8"?>
<!-- Generator: Adobe Illustrator 19.0.0, SVG Export Plug-In . SVG Version: 6.00 Build 0)  -->
<svg version="1.1" id="Layer_1" xmlns="http://www.w3.org/2000/svg" xmlns:xlink="http://www.w3.org/1999/xlink" x="0px" y="0px"
	 viewBox="308 235.9 1211 370" style="enable-background:new 308 235.9 1211 370;" xml:space="preserve">
<style type="text/css">
	.st0{fill:#FFFFFF;}
</style>
<path class="st0" d="M1518.8,553.9c0,2-6,5.9-7.5,6.9c-34.3,22.6-70.4,4.6-99.9-16.1c-58.4-40.9-132.8-26.7-198-14.7
	c-22.1,4.1-44.8,8.8-67.2,4.6c-31.5-5.9-55-31.3-78-51.4c-26.7-23.4-56.3-45.1-87-62.8c-12.9-7.4-26.2-14-40.1-19.3
	c-75.8-29-152.8,1.9-227.6,18.9c-4,0.9-8,1.8-11.9,2.6c-85.3,18.5-132.7-45-185.5-99.5c-29.2-30.1-66.6-51.8-111.2-65.5
	c-22.1-6.8-45-11.1-68.6-12.7c-9.5-0.7-19-1.3-28.5-1.9c0,120.9,0,241.9,0,362.9c403.7,0,807.4,0,1211,0
	C1518.8,605.9,1518.8,553.9,1518.8,553.9z"/>
</svg>
